<svg width="30" height="30" viewBox="0 0 30 30" fill="none" xmlns="http://www.w3.org/2000/svg">
<path d="M12.557 16.5286C12.6773 16.5286 15.4687 16.6489 17.1291 16.2398H17.1411C19.0542 15.7706 21.7132 14.423 22.399 10.0194C22.399 10.0194 23.9271 4.50882 16.347 4.50882H9.83783C9.24827 4.50882 8.74293 4.94196 8.64668 5.51949L5.87937 23.0378C5.81921 23.3987 6.10797 23.7356 6.46892 23.7356H10.5958L11.6065 17.3347C11.6787 16.8775 12.0757 16.5286 12.557 16.5286Z" fill="black"/>
<path d="M23.4579 10.8737C22.4833 15.3615 19.4152 17.7318 14.5303 17.7318H12.7616L11.5223 25.5765C11.4742 25.8893 11.7148 26.1661 12.0277 26.1661H14.3137C14.7228 26.1661 15.0837 25.8653 15.1439 25.4562C15.2401 24.9749 15.7695 21.4616 15.8778 20.8601C15.938 20.451 16.2989 20.1502 16.708 20.1502H17.2374C20.6304 20.1502 23.2894 18.7665 24.0715 14.784C24.3843 13.1717 24.2159 11.8482 23.4579 10.8737Z" fill="black"/>
</svg>
