<svg width="29" height="30" viewBox="0 0 29 30" fill="none" xmlns="http://www.w3.org/2000/svg">
<path d="M26.0028 14.399L20.4682 9.94719V6.91518C20.4976 6.3075 20.2849 5.71294 19.8767 5.26185C19.4685 4.81076 18.898 4.53996 18.2904 4.50882H4.57415C3.97084 4.54607 3.40649 4.81952 3.00338 5.26993C2.60026 5.72034 2.39083 6.31144 2.42046 6.91518V18.947C2.40929 19.4248 2.54065 19.8951 2.79779 20.2979C3.05493 20.7008 3.4262 21.0179 3.86428 21.209C3.64269 21.751 3.55633 22.3389 3.61265 22.9218C3.66897 23.5047 3.86627 24.0652 4.18754 24.5548C4.5088 25.0445 4.94438 25.4486 5.45668 25.7323C5.96899 26.0161 6.54264 26.1709 7.12813 26.1834C7.71363 26.196 8.29338 26.0659 8.81737 25.8043C9.34136 25.5428 9.79385 25.1577 10.1358 24.6823C10.4777 24.2069 10.6989 23.6554 10.7801 23.0754C10.8613 22.4954 10.8002 21.9044 10.6021 21.3533H18.2543C18.0564 21.8985 17.9928 22.4834 18.0689 23.0584C18.145 23.6334 18.3586 24.1815 18.6914 24.6565C19.0243 25.1315 19.4668 25.5192 19.9813 25.7869C20.4958 26.0546 21.0673 26.1944 21.6473 26.1944C22.2273 26.1944 22.7987 26.0546 23.3133 25.7869C23.8278 25.5192 24.2702 25.1315 24.6031 24.6565C24.936 24.1815 25.1495 23.6334 25.2256 23.0584C25.3017 22.4834 25.2381 21.8985 25.0402 21.3533H25.2809C25.6 21.3533 25.906 21.2266 26.1317 21.0009C26.3573 20.7753 26.4841 20.4693 26.4841 20.1502V15.3374C26.4804 15.1547 26.4351 14.9753 26.3517 14.8127C26.2683 14.65 26.149 14.5086 26.0028 14.399ZM24.0777 15.915V18.947H20.4682V13.0273L24.0777 15.915ZM8.43636 22.5565C8.43636 22.7945 8.3658 23.0271 8.23359 23.225C8.10138 23.4228 7.91347 23.5771 7.69362 23.6681C7.47376 23.7592 7.23185 23.783 6.99845 23.7366C6.76506 23.6902 6.55067 23.5756 6.3824 23.4073C6.21414 23.239 6.09954 23.0246 6.05312 22.7913C6.00669 22.5579 6.03052 22.3159 6.12159 22.0961C6.21265 21.8762 6.36687 21.6883 6.56473 21.5561C6.76259 21.4239 6.99521 21.3533 7.23318 21.3533C7.55228 21.3533 7.85832 21.4801 8.08396 21.7057C8.3096 21.9314 8.43636 22.2374 8.43636 22.5565ZM22.8745 22.5565C22.8745 22.7945 22.804 23.0271 22.6718 23.225C22.5395 23.4228 22.3516 23.5771 22.1318 23.6681C21.9119 23.7592 21.67 23.783 21.4366 23.7366C21.2032 23.6902 20.9888 23.5756 20.8206 23.4073C20.6523 23.239 20.5377 23.0246 20.4913 22.7913C20.4449 22.5579 20.4687 22.3159 20.5597 22.0961C20.6508 21.8762 20.805 21.6883 21.0029 21.5561C21.2008 21.4239 21.4334 21.3533 21.6713 21.3533C21.9904 21.3533 22.2965 21.4801 22.5221 21.7057C22.7478 21.9314 22.8745 22.2374 22.8745 22.5565Z" fill="black"/>
</svg>
