<svg width="30" height="30" viewBox="0 0 30 30" fill="none" xmlns="http://www.w3.org/2000/svg">
<path d="M23.3393 6.80695C22.236 5.69294 20.9221 4.80963 19.4741 4.20852C18.026 3.60741 16.4728 3.3005 14.905 3.3057C8.33563 3.3057 2.98148 8.65985 2.98148 15.2292C2.98148 17.3348 3.53494 19.3802 4.56968 21.185L2.88522 27.3693L9.20192 25.7089C10.9465 26.6594 12.9077 27.1648 14.905 27.1648C21.4744 27.1648 26.8285 21.8106 26.8285 15.2412C26.8285 12.0528 25.5892 9.0569 23.3393 6.80695ZM14.905 25.1434C13.1243 25.1434 11.3797 24.6621 9.85164 23.7598L9.49068 23.5432L5.73676 24.5298L6.7354 20.8721L6.49476 20.4991C5.50521 18.9194 4.97987 17.0933 4.97876 15.2292C4.97876 9.76678 9.43052 5.31501 14.893 5.31501C17.54 5.31501 20.0305 6.34974 21.8955 8.22671C22.8191 9.14577 23.551 10.2391 24.0487 11.4432C24.5465 12.6473 24.8002 13.9383 24.7951 15.2412C24.8192 20.7037 20.3674 25.1434 14.905 25.1434ZM20.3434 17.7318C20.0426 17.5874 18.5747 16.8655 18.31 16.7573C18.0333 16.661 17.8408 16.6129 17.6362 16.9016C17.4317 17.2024 16.8662 17.8762 16.6977 18.0687C16.5293 18.2733 16.3488 18.2973 16.048 18.1409C15.7472 17.9965 14.7847 17.6717 13.6537 16.661C12.7633 15.8669 12.1738 14.8923 11.9933 14.5915C11.8249 14.2907 11.9692 14.1343 12.1256 13.9779C12.258 13.8456 12.4264 13.629 12.5708 13.4605C12.7152 13.2921 12.7754 13.1597 12.8716 12.9672C12.9679 12.7627 12.9197 12.5942 12.8476 12.4499C12.7754 12.3055 12.1738 10.8376 11.9331 10.236C11.6925 9.65849 11.4398 9.73068 11.2594 9.71865H10.6818C10.4773 9.71865 10.1645 9.79084 9.88773 10.0916C9.62303 10.3924 8.853 11.1143 8.853 12.5822C8.853 14.0501 9.92383 15.4699 10.0682 15.6624C10.2126 15.8669 12.1738 18.8749 15.1577 20.1623C15.8675 20.4751 16.421 20.6556 16.8541 20.7879C17.564 21.0165 18.2137 20.9804 18.7311 20.9082C19.3086 20.824 20.4998 20.1863 20.7404 19.4885C20.9931 18.7906 20.9931 18.2011 20.9089 18.0687C20.8246 17.9364 20.6442 17.8762 20.3434 17.7318Z" fill="black"/>
</svg>
