<svg width="30" height="30" viewBox="0 0 30 30" fill="none" xmlns="http://www.w3.org/2000/svg">
<path d="M6.34114 12.9311C6.5914 11.2049 7.40074 9.77074 8.76916 8.62852C10.1376 7.4863 11.6945 6.91519 13.4399 6.91519C15.0859 6.91519 16.3865 7.29901 17.3418 8.06663C18.2971 8.83426 19.0018 9.55497 19.4558 10.2288V6.91519H20.659V12.9311H14.6431V11.7279H18.9011C18.5041 10.8672 17.8532 10.0507 16.9484 9.27824C16.0452 8.50499 14.8757 8.11837 13.4399 8.11837C11.9961 8.11837 10.7227 8.57478 9.61981 9.48759C8.51689 10.4004 7.82507 11.5482 7.54432 12.9311H6.34114ZM23.7873 25.3792L18.077 19.6689C17.4016 20.2416 16.6761 20.6655 15.9004 20.9407C15.1264 21.2158 14.3062 21.3534 13.4399 21.3534C12.2568 21.3534 11.1142 21.0622 10.012 20.4798C8.90993 19.8975 8.04725 19.0842 7.42401 18.0398V21.3534H6.22083V15.3375H12.2367V16.5406H7.97987C8.42264 17.5866 9.13493 18.4497 10.1167 19.1299C11.0985 19.8101 12.2062 20.1502 13.4399 20.1502C14.8837 20.1502 16.1571 19.6942 17.26 18.7822C18.3629 17.8701 19.0547 16.7219 19.3355 15.3375H20.5387C20.4384 16.0594 20.2579 16.6822 19.9972 17.206C19.7366 17.7298 19.38 18.2672 18.9276 18.8183L24.6391 24.5285L23.7873 25.3792Z" fill="black"/>
</svg>
